<svg width="48" height="48" viewBox="0 0 48 48" fill="none" xmlns="http://www.w3.org/2000/svg" xmlns:xlink="http://www.w3.org/1999/xlink">
<path d="M36,21.11C36,28.842 29.732,35.11 22,35.11L22,39.11C31.941,39.11 40,31.051 40,21.11L36,21.11ZM22,35.11C14.268,35.11 8,28.842 8,21.11L4,21.11C4,31.051 12.059,39.11 22,39.11L22,35.11ZM8,21.11C8,13.378 14.268,7.11 22,7.11L22,3.11C12.059,3.11 4,11.169 4,21.11L8,21.11ZM22,7.11C29.732,7.11 36,13.378 36,21.11L40,21.11C40,11.169 31.941,3.11 22,3.11L22,7.11Z" fill="#828282"/>
<path d="M40.586,42.524C41.367,43.305 42.633,43.305 43.414,42.524C44.195,41.743 44.195,40.477 43.414,39.695L40.586,42.524ZM34.714,30.995C33.933,30.214 32.667,30.214 31.886,30.995C31.105,31.777 31.105,33.043 31.886,33.824L34.714,30.995ZM43.414,39.695L34.714,30.995L31.886,33.824L40.586,42.524L43.414,39.695Z" fill="#828282"/>
</svg>
